<svg 
 xmlns="http://www.w3.org/2000/svg"
 xmlns:xlink="http://www.w3.org/1999/xlink"
 width="960px" height="81px">
<path fill-rule="evenodd"  opacity="0.302" fill="rgb(0, 45, 212)"
 d="M0.991,71.907 C0.991,71.907 120.618,85.363 235.260,27.056 C235.260,27.056 364.856,-43.585 560.246,43.875 C560.246,43.875 693.830,113.395 881.245,23.692 C881.245,23.692 918.130,0.144 960.000,20.328 L960.000,80.877 L-0.006,80.877 L0.991,71.907 Z"/>
</svg>
<svg 
 xmlns="http://www.w3.org/2000/svg"
 xmlns:xlink="http://www.w3.org/1999/xlink"
 width="960px" height="343px">
<path fill-rule="evenodd"  opacity="0.102" fill="rgb(0, 45, 212)"
 d="M0.000,61.108 C0.000,61.108 329.000,521.891 960.000,-0.001 L960.000,342.999 L0.000,342.999 L0.000,61.108 Z"/>
</svg>
<svg 
 xmlns="http://www.w3.org/2000/svg"
 xmlns:xlink="http://www.w3.org/1999/xlink"
 width="960px" height="343px">
<path fill-rule="evenodd"  opacity="0.102" fill="rgb(0, 45, 212)"
 d="M960.000,158.685 C960.000,158.685 430.000,431.706 0.000,-0.001 L0.000,342.999 L960.000,342.999 L960.000,158.685 Z"/>
</svg>
<svg 
 xmlns="http://www.w3.org/2000/svg"
 xmlns:xlink="http://www.w3.org/1999/xlink"
 width="961px" height="193px">
<path fill-rule="evenodd"  opacity="0.2" fill="rgb(0, 45, 212)"
 d="M1.993,68.518 C1.993,68.518 88.084,74.125 218.221,24.780 C218.221,24.780 374.386,-41.386 571.595,46.088 C571.595,46.088 794.831,138.048 961.006,29.265 L961.006,193.001 L-0.009,193.001 L1.993,68.518 Z"/>
</svg>
<svg 
 xmlns="http://www.w3.org/2000/svg"
 xmlns:xlink="http://www.w3.org/1999/xlink"
 width="960px" height="209px">
<path fill-rule="evenodd"  opacity="0.149" fill="rgb(0, 45, 212)"
 d="M-0.003,17.499 C-0.003,17.499 100.893,-31.816 240.749,35.431 C240.749,35.431 394.591,118.370 529.452,61.209 C529.452,61.209 801.173,-60.957 960.009,41.035 L960.009,208.033 L1.995,208.033 L-0.003,17.499 Z"/>
</svg>
<svg 
 xmlns="http://www.w3.org/2000/svg"
 xmlns:xlink="http://www.w3.org/1999/xlink"
 width="962px" height="245px">
<path fill-rule="evenodd"  opacity="0.102" fill="rgb(0, 45, 212)"
 d="M-0.003,25.117 C-0.003,25.117 154.837,-23.122 296.690,87.941 C296.690,87.941 438.544,194.517 600.377,90.185 C600.377,90.185 770.201,-48.925 962.003,19.508 L962.003,245.001 L0.996,245.001 L-0.003,25.117 Z"/>
</svg>